<?xml version="1.0" encoding="utf-8"?>
<!-- Generator: Adobe Illustrator 16.0.0, SVG Export Plug-In . SVG Version: 6.00 Build 0)  -->
<!DOCTYPE svg PUBLIC "-//W3C//DTD SVG 1.1//EN" "http://www.w3.org/Graphics/SVG/1.1/DTD/svg11.dtd">
<svg height="512" width="512" version="1.1" id="Layer_1" xmlns="http://www.w3.org/2000/svg" xmlns:xlink="http://www.w3.org/1999/xlink" x="0px" y="0px"
	   viewBox="0 0 512 512" enable-background="new 0 0 512 512" xml:space="preserve">
<g id="review_1_">
	<g>
		<path fill="#FFCE54" d="M490.118,0.008H276.78c-5.891,0-10.672,4.765-10.672,10.655v192.011c0,5.89,4.781,10.655,10.672,10.655
			h31.999V256l85.341-42.671h95.998c5.891,0,10.656-4.766,10.656-10.655V10.663C500.774,4.772,496.009,0.008,490.118,0.008z"/>
	</g>
	<g>
		<path fill="#E2A437" d="M268.608,434.432H51.396c0,0-56.623-263.741,108.606-263.741
			C325.216,170.69,268.608,434.432,268.608,434.432z"/>
	</g>
	<g>
		<path fill="#A0D468" d="M281.905,428.229l-1.203-0.344c-17.641-4.733-23.609-9.296-31.468-12.28
			c-27.859-10.608-35.108-18.265-36.968-21.874c-0.062-0.141-0.109-0.281-0.172-0.406l-0.234-32.359l-51.858-0.749l-51.858,0.749
			l-0.234,32.359c-0.062,0.125-0.109,0.266-0.172,0.406c-1.859,3.609-9.109,11.266-36.968,21.874
			c-7.859,2.984-13.828,7.547-31.468,12.28l-1.219,0.344c-16.062,5.312-26.858,20.203-26.858,37.016v46.748h148.777h148.777v-46.748
			C308.779,448.432,297.968,433.541,281.905,428.229z"/>
	</g>
	<g>
		<path fill="#EAC6BB" d="M251.688,298.029c0,59.577-56.795,114.403-91.685,114.403c-34.905,0-91.701-54.826-91.701-114.403
			c0-59.576,41.062-98.887,91.701-98.887S251.688,238.453,251.688,298.029z"/>
	</g>
	<g>
		<polygon fill="#FFCE54" points="176.768,237.892 94.223,292.718 63.974,299.967 71.114,261.156 91.395,207.532 148.284,187.096 
			214.954,191.533 242.953,239.531 250.969,274.952 		"/>
	</g>
	<g>
		<path fill="#F6BB42" d="M277.218,314.389c-3.047-48.123-16.047-98.372-52.702-124.809l-41.733,34.812l-12.031,17.624
			l106.31,72.592L277.218,314.389z"/>
	</g>
	<g>
		<polygon fill="#ED5564" points="412.167,120.691 415.448,117.488 440.9,92.692 405.729,87.583 401.198,86.911 399.167,82.802 
			383.449,50.943 367.716,82.802 365.7,86.911 361.153,87.583 325.997,92.692 351.435,117.488 354.716,120.691 353.95,125.207 
			347.935,160.222 379.387,143.69 383.449,141.55 387.496,143.69 418.948,160.222 412.948,125.207 		"/>
	</g>
	<g>
		<path fill="#FFCE54" d="M42.568,318.186c41.468-7.562,87.294-30.062,136.23-66.92c29.171-21.983,50.499-42.437,58.592-50.498
			c-17.718-18.422-42.639-30.077-77.388-30.077C70.849,170.69,46.287,247.469,42.568,318.186z"/>
	</g>
</g>
</svg>
